<?xml version="1.0" standalone="no"?>
<!DOCTYPE svg PUBLIC "-//W3C//DTD SVG 20010904//EN"
 "http://www.w3.org/TR/2001/REC-SVG-20010904/DTD/svg10.dtd">
<svg version="1.0" xmlns="http://www.w3.org/2000/svg"
 width="203.000000pt" height="203.000000pt" viewBox="0 0 203.000000 203.000000"
 preserveAspectRatio="xMidYMid meet">
<metadata>
Created by potrace 1.11, written by Peter Selinger 2001-2013
</metadata>
<g transform="translate(0.000000,203.000000) scale(0.100000,-0.100000)"
fill="#000000" stroke="none">
<path d="M174 2017 c-46 -15 -92 -55 -116 -100 l-21 -42 0 -820 c0 -809 0
-821 20 -860 43 -82 105 -115 220 -115 70 0 75 -1 62 -17 -12 -16 -12 -17 2
-6 9 7 20 9 24 5 5 -4 5 -2 1 5 -5 9 23 12 110 12 109 1 115 0 103 -17 -12
-15 -12 -16 2 -5 9 7 20 9 24 5 5 -4 5 -1 1 6 -5 9 11 12 70 12 71 0 76 -1 63
-17 -12 -16 -12 -17 2 -6 9 7 20 9 24 5 5 -4 5 -1 1 6 -4 7 -1 12 9 12 10 0
14 -5 9 -12 -6 -10 -4 -10 7 0 21 19 52 16 45 -6 -6 -16 -5 -16 8 0 10 14 28
18 81 18 63 0 67 -1 54 -18 -12 -15 -12 -16 2 -5 9 7 20 9 24 5 5 -4 5 -2 1 5
-5 9 23 12 110 12 109 1 115 0 103 -17 -12 -15 -12 -16 2 -5 9 7 20 9 24 5 5
-4 5 -2 1 5 -5 9 13 12 70 12 70 0 74 -1 62 -17 -11 -15 -11 -15 3 -5 9 7 20
9 24 5 5 -4 5 -2 1 5 -5 9 23 12 110 12 109 1 115 0 103 -17 -12 -15 -12 -16
2 -5 9 7 20 9 24 5 5 -4 5 -1 1 6 -5 9 6 12 41 14 26 0 53 2 59 2 23 3 103 60
115 83 8 15 20 23 29 20 9 -2 17 1 17 8 0 7 -6 11 -13 8 -10 -4 -11 2 -4 25 4
17 5 34 2 38 -4 4 1 4 10 1 12 -4 15 -2 11 8 -3 8 -8 13 -12 10 -4 -2 -8 3 -8
11 0 8 6 13 13 10 8 -3 11 0 7 9 -3 8 -8 13 -12 10 -4 -2 -8 3 -8 11 0 8 6 13
13 10 8 -3 11 0 7 9 -3 8 -8 13 -12 10 -4 -2 -8 3 -8 11 0 8 6 13 13 10 8 -3
11 0 7 9 -3 8 -8 13 -12 10 -4 -2 -8 3 -8 11 0 8 6 13 13 10 8 -3 11 0 7 9 -3
8 -8 13 -12 10 -4 -2 -8 3 -8 11 0 8 6 13 13 10 8 -3 11 0 7 9 -3 8 -8 13 -12
10 -4 -2 -8 3 -8 11 0 8 6 13 13 10 8 -3 11 0 7 9 -3 8 -8 13 -12 10 -4 -2 -8
3 -8 11 0 8 6 13 13 10 8 -3 11 0 7 9 -3 8 -8 13 -12 10 -4 -2 -8 3 -8 11 0 8
6 13 13 10 8 -3 11 0 7 9 -3 8 -8 13 -12 10 -4 -2 -8 3 -8 11 0 8 6 13 13 10
8 -3 11 0 7 9 -3 8 -8 13 -12 10 -4 -2 -8 3 -8 11 0 8 6 13 13 10 8 -3 11 0 7
9 -3 8 -8 13 -12 10 -4 -2 -8 3 -8 11 0 8 6 13 13 10 8 -3 11 0 7 9 -3 8 -9
13 -13 10 -10 -6 -8 15 3 33 5 6 4 12 -1 12 -5 0 -9 7 -9 15 0 8 4 15 8 15 4
0 4 13 -1 28 -4 16 -4 36 2 45 5 10 5 17 0 17 -5 0 -9 7 -9 15 0 8 4 15 8 15
4 0 4 13 -1 28 -4 16 -4 36 2 45 5 10 5 17 0 17 -5 0 -9 7 -9 15 0 8 4 15 8
15 4 0 4 13 -1 28 -4 16 -4 36 2 45 5 10 5 17 0 17 -5 0 -9 7 -9 15 0 8 4 15
8 15 4 0 4 13 -1 28 -4 16 -4 36 2 45 5 10 5 17 0 17 -5 0 -9 7 -9 15 0 8 4
15 8 15 4 0 4 13 -1 28 -4 16 -4 36 2 45 6 11 5 17 -2 17 -8 0 -8 6 0 20 6 11
7 20 2 20 -5 0 -9 7 -9 15 0 8 4 15 8 15 4 0 4 13 -1 28 -4 16 -4 36 2 45 5
10 5 17 0 17 -5 0 -9 7 -9 15 0 8 4 15 8 15 4 0 4 13 -1 28 -4 16 -4 36 2 45
5 10 5 17 0 17 -5 0 -9 7 -9 15 0 8 4 15 8 15 4 0 4 13 -1 28 -4 16 -4 36 2
45 5 10 5 17 0 17 -5 0 -9 7 -9 15 0 8 4 15 8 15 5 0 5 7 2 17 -4 10 -2 14 5
9 6 -3 14 -2 17 4 4 6 3 10 -2 9 -4 -1 -15 -1 -23 0 -13 1 -13 2 0 11 8 5 10
10 4 10 -6 0 -14 13 -17 29 -8 38 -58 94 -105 117 -35 18 -80 19 -808 19 -455
1 -782 -3 -800 -8z"/>
<path d="M1920 1790 c-9 -6 -10 -10 -3 -10 6 0 15 5 18 10 8 12 4 12 -15 0z"/>
<path d="M1910 1739 c0 -5 5 -7 10 -4 6 3 10 8 10 11 0 2 -4 4 -10 4 -5 0 -10
-5 -10 -11z"/>
<path d="M1916 1712 c-3 -5 1 -9 9 -9 8 0 12 4 9 9 -3 4 -7 8 -9 8 -2 0 -6 -4
-9 -8z"/>
<path d="M1910 1666 c0 -2 8 -10 18 -17 15 -13 16 -12 3 4 -13 16 -21 21 -21
13z"/>
<path d="M1910 1619 c0 -5 5 -7 10 -4 6 3 10 8 10 11 0 2 -4 4 -10 4 -5 0 -10
-5 -10 -11z"/>
<path d="M1916 1592 c-3 -5 1 -9 9 -9 8 0 12 4 9 9 -3 4 -7 8 -9 8 -2 0 -6 -4
-9 -8z"/>
<path d="M1910 1546 c0 -2 8 -10 18 -17 15 -13 16 -12 3 4 -13 16 -21 21 -21
13z"/>
<path d="M1910 1499 c0 -5 5 -7 10 -4 6 3 10 8 10 11 0 2 -4 4 -10 4 -5 0 -10
-5 -10 -11z"/>
<path d="M1916 1472 c-3 -5 1 -9 9 -9 8 0 12 4 9 9 -3 4 -7 8 -9 8 -2 0 -6 -4
-9 -8z"/>
<path d="M1910 1426 c0 -2 8 -10 18 -17 15 -13 16 -12 3 4 -13 16 -21 21 -21
13z"/>
<path d="M1914 1349 c-3 -6 -1 -16 5 -22 9 -9 10 -7 5 7 -6 15 -4 17 6 11 9
-5 11 -4 6 3 -9 15 -13 15 -22 1z"/>
<path d="M1910 1306 c0 -2 8 -10 18 -17 15 -13 16 -12 3 4 -13 16 -21 21 -21
13z"/>
<path d="M1914 1229 c-3 -6 -1 -16 5 -22 9 -9 10 -7 5 7 -6 15 -4 17 6 11 9
-5 11 -4 6 3 -9 15 -13 15 -22 1z"/>
<path d="M1910 1186 c0 -2 8 -10 18 -17 15 -13 16 -12 3 4 -13 16 -21 21 -21
13z"/>
<path d="M1914 1109 c-3 -6 -1 -16 5 -22 9 -9 10 -7 5 7 -6 15 -4 17 6 11 9
-5 11 -4 6 3 -9 15 -13 15 -22 1z"/>
<path d="M1910 1066 c0 -2 8 -10 18 -17 15 -13 16 -12 3 4 -13 16 -21 21 -21
13z"/>
<path d="M1914 989 c-3 -6 -1 -16 5 -22 9 -9 10 -7 5 7 -6 15 -4 17 6 11 9 -5
11 -4 6 3 -9 15 -13 15 -22 1z"/>
<path d="M1910 946 c0 -2 8 -10 18 -17 15 -13 16 -12 3 4 -13 16 -21 21 -21
13z"/>
<path d="M1914 869 c-3 -6 -1 -16 5 -22 9 -9 10 -7 5 7 -6 15 -4 17 6 11 9 -5
11 -4 6 3 -9 15 -13 15 -22 1z"/>
<path d="M1910 826 c0 -2 8 -10 18 -17 15 -13 16 -12 3 4 -13 16 -21 21 -21
13z"/>
<path d="M1916 752 c-3 -5 1 -9 9 -9 8 0 12 4 9 9 -3 4 -7 8 -9 8 -2 0 -6 -4
-9 -8z"/>
<path d="M1900 243 c0 -6 8 -17 18 -24 16 -13 16 -13 2 6 -8 11 -16 22 -17 24
-2 2 -3 0 -3 -6z"/>
<path d="M1886 161 c-17 -6 -17 -8 -4 -14 10 -3 19 0 22 9 3 8 4 14 3 13 -1 0
-11 -4 -21 -8z"/>
<path d="M1859 138 c-6 -18 -3 -46 3 -42 5 4 7 12 4 19 -3 8 0 16 7 19 9 3 9
5 0 5 -7 1 -13 0 -14 -1z"/>
<path d="M1820 109 c0 -5 5 -7 10 -4 6 3 10 8 10 11 0 2 -4 4 -10 4 -5 0 -10
-5 -10 -11z"/>
<path d="M1810 80 c-9 -6 -10 -10 -3 -10 6 0 15 5 18 10 8 12 4 12 -15 0z"/>
<path d="M1766 72 c-3 -5 1 -9 9 -9 8 0 15 4 15 9 0 10 -17 10 -24 0z"/>
<path d="M433 55 c0 -8 4 -12 9 -9 5 3 6 10 3 15 -9 13 -12 11 -12 -6z"/>
<path d="M1073 55 c0 -8 4 -12 9 -9 5 3 6 10 3 15 -9 13 -12 11 -12 -6z"/>
<path d="M1473 55 c0 -8 4 -12 9 -9 5 3 6 10 3 15 -9 13 -12 11 -12 -6z"/>
<path d="M1713 55 c0 -8 4 -12 9 -9 5 3 6 10 3 15 -9 13 -12 11 -12 -6z"/>
</g>
</svg>
